<?xml version="1.0" encoding="UTF-8" standalone="no"?>
<svg
   xmlns:dc="http://purl.org/dc/elements/1.1/"
   xmlns:cc="http://creativecommons.org/ns#"
   xmlns:rdf="http://www.w3.org/1999/02/22-rdf-syntax-ns#"
   xmlns:svg="http://www.w3.org/2000/svg"
   xmlns="http://www.w3.org/2000/svg"
   xmlns:sodipodi="http://sodipodi.sourceforge.net/DTD/sodipodi-0.dtd"
   xmlns:inkscape="http://www.inkscape.org/namespaces/inkscape"
   viewBox="0 0 168.11999 167.85853"
   version="1.1"
   id="svg28"
   sodipodi:docname="QlovaDesign.svg"
   width="168.12"
   height="167.85852"
   inkscape:version="0.92.5 (2060ec1f9f, 2020-04-08)">
  <metadata
     id="metadata32">
    <rdf:RDF>
      <cc:Work
         rdf:about="">
        <dc:format>image/svg+xml</dc:format>
        <dc:type
           rdf:resource="http://purl.org/dc/dcmitype/StillImage" />
        <dc:title>seed conceotAsset 4</dc:title>
      </cc:Work>
    </rdf:RDF>
  </metadata>
  <sodipodi:namedview
     pagecolor="#ffffff"
     bordercolor="#666666"
     borderopacity="1"
     objecttolerance="10"
     gridtolerance="10"
     guidetolerance="10"
     inkscape:pageopacity="0"
     inkscape:pageshadow="2"
     inkscape:window-width="1848"
     inkscape:window-height="1053"
     id="namedview30"
     showgrid="false"
     fit-margin-top="0"
     fit-margin-left="0"
     fit-margin-right="0"
     fit-margin-bottom="0"
     inkscape:zoom="0.31404041"
     inkscape:cx="362.87855"
     inkscape:cy="46.580923"
     inkscape:window-x="72"
     inkscape:window-y="-10"
     inkscape:window-maximized="1"
     inkscape:current-layer="Layer_1-2" />
  <defs
     id="defs4">
    <style
       id="style2">.cls-1{fill:#565656;}.cls-2{fill:#74c485;}.cls-3{fill:#478c57;}</style>
  </defs>
  <title
     id="title6">seed conceotAsset 4</title>
  <g
     id="Layer_2"
     data-name="Layer 2"
     transform="translate(-0.26795522,-1.3379552)">
    <g
       id="Layer_1-2"
       data-name="Layer 1">
      <path
         class="cls-2"
         d="m 10.2,60.51 a 34.81,34.81 0 0 1 49.24,0 L 84.06,85.13 59.44,109.75 A 34.82,34.82 0 0 1 10.2,60.51 Z"
         id="path18"
         inkscape:connector-curvature="0"
         style="fill:#74c485" />
      <path
         class="cls-3"
         d="m 108.68,159 a 34.79,34.79 0 0 0 0,-49.24 L 84.06,85.13 59.44,109.75 A 34.821474,34.821474 0 0 0 108.68,159 Z"
         id="path20"
         inkscape:connector-curvature="0"
         style="fill:#478c57" />
      <path
         class="cls-2"
         d="m 59.44,11.27 a 34.81,34.81 0 0 0 0,49.24 L 84.06,85.13 108.68,60.51 A 34.82,34.82 0 0 0 59.44,11.27 Z"
         id="path22"
         inkscape:connector-curvature="0"
         style="fill:#74c485" />
      <path
         class="cls-3"
         d="m 157.92,109.75 a 34.81,34.81 0 0 1 -49.24,0 L 84.06,85.13 108.68,60.51 a 34.82,34.82 0 1 1 49.24,49.24 z"
         id="path24"
         inkscape:connector-curvature="0"
         style="fill:#478c57" />
    </g>
  </g>
</svg>
